<?xml version="1.0" encoding="utf-8"?>
<!-- Generator: Adobe Illustrator 28.0.0, SVG Export Plug-In . SVG Version: 6.00 Build 0)  -->
<svg version="1.1" id="Lager_1" xmlns="http://www.w3.org/2000/svg" xmlns:xlink="http://www.w3.org/1999/xlink" x="0px" y="0px"
	 viewBox="0 0 879.3 107.9" style="enable-background:new 0 0 879.3 107.9;" xml:space="preserve">
<path d="M140.5,22.7l-16.4,85.1h-20.3L87.3,22.7h20.2l6.4,42.6l6.5-42.6H140.5z M197,84c0,13.9-11.4,25.3-25.3,25.3
	c-14,0-25.3-11.4-25.3-25.3V46.7c0-13.9,11.4-25.3,25.4-25.3c13.9,0,25.2,11.4,25.2,25.3V84z M177.2,84V46.4c0-3-2.4-5.3-5.4-5.3
	c-3,0-5.6,2.3-5.6,5.3V84c0,3,2.4,5.4,5.4,5.4C174.5,89.4,177.2,87,177.2,84z M259.5,88.1v19.8h-48.9V22.7h19.8v65.4H259.5z
	 M321.2,84c0,13.9-11.4,25.3-25.3,25.3c-14,0-25.3-11.4-25.3-25.3V46.7c0-13.9,11.4-25.3,25.4-25.3c13.9,0,25.2,11.4,25.2,25.3V84z
	 M301.4,84V46.4c0-3-2.4-5.3-5.4-5.3c-3,0-5.6,2.3-5.6,5.3V84c0,3,2.4,5.4,5.4,5.4S301.4,87,301.4,84z M385.5,107.9h-19.9l-11-39.7
	v39.7h-19.8V22.7h19.9l10.9,41v-41h19.9V107.9z M451.2,42.5h-16.8v65.4h-19.9V42.5h-16.7V22.7h53.4V42.5z M507.9,107.9h-20.1
	l-2.1-21.3h-8.5l-2.2,21.3h-20.2l13.1-85.1h26.2L507.9,107.9z M484.2,73.4l-2.9-28l-2.9,28H484.2z M498.3,17.3h-12.5V7.2h12.5V17.3z
	 M476.4,17.3h-12.5V7.2h12.5V17.3z M569.5,53.6c0,8.4-5,16.3-11.4,20l11.3,34.3h-21.2l-9.6-29.1v29.1h-19.8V22.7h25.3
	c13.9,0,25.3,11.5,25.3,25.4V53.6z M549.7,58.6v-8.8c0-5.2-2.6-7.2-6.7-7.2h-4.4v23.4h4.4C547.1,65.9,549.7,64,549.7,58.6z
	 M633.8,84.2c0,13.9-11.3,23.6-25.2,23.6h-25.4V22.7h25.4c13.9,0,25.2,10,25.2,23.9c0,11.8-3.1,15.5-8.6,18.8
	C630.7,68.7,633.8,72.4,633.8,84.2z M614,52.9V48c0-3-2.6-5.5-5.5-5.5h-5.5v16.1h5.5C611.4,58.6,614,55.9,614,52.9z M614,82.4v-4.9
	c0-3-2.6-5.6-5.5-5.6h-5.5v16.2h5.5C611.4,88.1,614,85.4,614,82.4z M694.9,22.7l-16.6,55.6v29.6h-19.9V78.3l-16.7-55.6h20.2
	l6.4,32.8l6.5-32.8H694.9z M755.5,53.6c0,8.4-5,16.3-11.4,20l11.3,34.3h-21.2l-9.6-29.1v29.1h-19.8V22.7h25.3
	c13.9,0,25.3,11.5,25.3,25.4V53.6z M735.7,58.6v-8.8c0-5.2-2.6-7.2-6.7-7.2h-4.4v23.4h4.4C733.1,65.9,735.7,64,735.7,58.6z
	 M817.6,107.9h-20.1l-2.1-21.3h-8.5l-2.2,21.3h-20.2l13.1-85.1h26.2L817.6,107.9z M794,73.4l-2.9-28l-2.9,28H794z M798.7,9.8
	c0,4.2-3.3,7.5-7.5,7.5s-7.4-3.3-7.4-7.5c0-4,3.3-7.5,7.4-7.5S798.7,5.8,798.7,9.8z M794.4,9.8c0-1.7-1.4-3.2-3.2-3.2
	c-1.8,0-3.2,1.5-3.2,3.2c0,1.8,1.4,3.2,3.2,3.2C793.1,13,794.4,11.6,794.4,9.8z M879.3,107.9h-19.9l-11-39.7v39.7h-19.8V22.7h19.9
	l10.9,41v-41h19.9V107.9z"/>
<path d="M2.2,25.4c-11,5.4,22,83.5,22,83.5l20.7,0c7-7.4,36.4-45.4,26.1-52.2c-6.9-4.5-10.3,16-16,16c-9.6,0,17.2-47.3,6.4-50
	C53,20.6,48.6,61.9,43.4,62.1c-5.2,0.2,3.2-40.4-6.4-40.4c-9.6,0-1.4,40.3-6.4,40.4c-5,0.2-3.7-41.6-12.8-40.4
	c-8.5,1.1,5.3,39.4,0,40.4C12.5,63.1,8.1,22.6,2.2,25.4z"/>
</svg>
